<?xml version="1.0" encoding="utf-8"?>
<!-- Generator: Adobe Illustrator 18.0.0, SVG Export Plug-In . SVG Version: 6.00 Build 0)  -->
<!DOCTYPE svg PUBLIC "-//W3C//DTD SVG 1.1//EN" "http://www.w3.org/Graphics/SVG/1.1/DTD/svg11.dtd">
<svg version="1.1" id="Layer_1" xmlns="http://www.w3.org/2000/svg" xmlns:xlink="http://www.w3.org/1999/xlink" x="0px" y="0px"
	 width="800px" height="600px" viewBox="0 0 800 600" enable-background="new 0 0 800 600" xml:space="preserve">
<g>
	<rect fill="#FFFFFF" width="800" height="600"/>
	<g>
		<path fill="#BFE8FB" d="M567.2,47.1C434.4,29,369.6,101.2,317.4,219.3S73.1,297.8,81.9,429.8s284.3,171.9,491.1,63
			C794.4,376.2,738.7,70.6,567.2,47.1z"/>
		<g>
			<circle fill="#FFFFFF" cx="564.8" cy="130" r="22"/>
			<path fill="#FFFFFF" d="M615.9,423.5c-22.6-4.5-58.1-45.4-93.3-43.9c-35.3,1.5,10.1,30.3-6.5,31.8c-16.6,1.5-3-19.7-28.7-30.3
				c-25.7-10.6-46.9,7.6-56-9.1c-9.1-16.7-27.3-25.7-37.9-16.7c-10.6,9.1-3,24.2-16.7,22.7c-13.6-1.5-25.7-39-53-26.3
				c-27.3,12.7-31.8-55.5-78.8-55.5c-46.9,0-36.3,53-46.9,53s3-22.7-36.3-15.1c-39.4,7.6-13.6,54.5-21.2,57.6
				c-7.6,3-18.2-10.6-31.8-4.5c-13.6,6.1,0,36.3,0,36.3H615.9z"/>
			<path fill="#FFFFFF" d="M504.6,244.5c0,0,19-6.1,32.9-17.9c14-11.7,16.2,9.5,24,8.9c7.8-0.6-1.7-3.2,0-12.5
				c1.7-9.3,17.9,6.9,24.6-4.8c6.7-11.7,15.1-11.7,24.6-9.5c9.5,2.2-1.1-13.4,19.5-14.5c20.7-1.1,15.1,26.2,21.2,28.5
				c6.1,2.2,10.6-7.8,22.9-3.4c12.3,4.5,12.8,16.8,18.4,16.2c5.6-0.6,15.6,8.9,15.6,8.9H504.6z"/>
		</g>
		<path fill="#55853C" d="M466.2,447.9c0,0,5.5-46.1,18.3-64.3c12.8-18.2,6.4,22.1,13.8,24.9c7.3,2.8,9.7-60.5,19.1-66
			c9.3-5.5,10.3,15,13.9,14.8c3.7-0.2,5.5-53.7,15.6-57.2s8.7,15.8,14.4,15.3c5.7-0.5,8-23.3,19.7-19.7
			c11.7,3.6,10.8,19.2,17.2,19.7s13.8-56.3,31.2-60.5s14.7,28.4,19.3,28.4s1.8-49,13.8-53.6c11.9-4.6,19,29.3,20.5,28.4
			c1.5-0.9-2.2-50.8,16.2-53.8c18.3-3,19.3,60.8,19.3,60.8v0c0,101-81.9,182.8-182.8,182.8H466.2z"/>
		<path fill="#64B045" d="M708.4,329.4c-94.8-20.4-114.8,59.2-202.3,59.2c-93.4,0-90.9,53.6-187.1,16.5s-189.8,0-189.8,0
			c-18.7,7.4-34.2,16.5-47.1,26.4c11.1,130.5,285.1,169.7,491,61.3C647.3,453.7,690.4,393.3,708.4,329.4z"/>
		<g>
			<path fill="#9B8579" d="M269,238.1c0,0-22.2-0.7-25.2,6.5c-3.3,7.9-3.3,34.4-3.3,34.4s10.5,4.9,24.9,5.6
				C265.4,284.6,276.3,254.7,269,238.1z"/>
			<path fill="#9B8579" d="M268.5,196c0,0-17.8,0.7-19.9,6.7c-2.2,6.6-0.7,27.8-0.7,27.8s8.7,3.3,20.3,3.1
				C268.2,233.6,275.3,208.9,268.5,196z"/>
			<g>
				<g>
					<path fill="#726658" d="M251,165.5c0,0,38.8-6.4,78.3-2.4c0,0,8.8,8.8,1.3,21.3c0,0-30.2-1.1-72.4,9.2L251,165.5z"/>
					<path fill="#9B8579" d="M251,165.5c-4.4,2.2-8.7,7.5-6.6,18.4c1.3,6.5,8.4,9.6,13.8,9.7c7.1,0.1,11.9-9.2,10.6-15.4
						C266.2,165,256.1,163,251,165.5z"/>
					<path fill="#726658" d="M258,188.8c-3.3,0-7.3-2.1-9.4-8.2c-1.4-4-1.3-7.4,0.2-10.3c2.4-4.5,7.4-5.9,7.6-6l0.3,1
						c0,0-4.8,1.4-7,5.5c-1.4,2.6-1.4,5.8-0.1,9.5c2.3,6.6,6.8,8.1,10,7.4c2.7-0.6,5.4-3.1,4.9-7.2c-0.6-5.3-3.8-8.8-6.5-9.1
						c-1.8-0.2-3.3,1.2-4.2,3.9c-0.7,2.2-0.7,3.7,0.1,4.4c1.3,1.2,4.3,0.4,5.4,0l0.3,0.9c-0.2,0.1-4.5,1.6-6.5-0.2
						c-1.1-1-1.2-2.9-0.4-5.5c1-3.2,2.9-4.8,5.3-4.6c3.5,0.3,6.8,4.8,7.4,10c0.5,4.4-2.5,7.5-5.7,8.3
						C259.1,188.7,258.6,188.8,258,188.8z"/>
				</g>
				<path fill="#594A42" d="M274.4,162.9c0,0,9.1,4,7.8,20.4l4.2-0.6c0,0,1.9-14.7-8.3-20.1L274.4,162.9z"/>
				<path fill="#594A42" d="M312.2,161.4c0,0,8.5,5.2,4.9,21.2l4.3,0c0,0,3.9-14.3-5.5-21L312.2,161.4z"/>
			</g>
			<g>
				<path fill="#9B8579" d="M274.4,184.5c0,0,1.8,41.9,0,58.7c-1.8,16.8-1.3,48.5-1.3,48.5s50.2,8,68.3-4.9c0,0-0.8-43.6-2.8-60.5
					s-10.8-45.9-10.8-45.9S307.4,178.9,274.4,184.5z"/>
				<path fill="#C2B59B" d="M274.4,184.5c0,0-15.2,2.4-17.9,13.1l1.2,39.5l-4.4,50.6c0,0,2.4,3.3,19.8,3.9c0,0,6.6-29.2,6.6-59
					S274.4,184.5,274.4,184.5z"/>
			</g>
			<path fill="#25313E" d="M337.4,287.2c0,0-10.3,73.4-21.7,90.8c-11.4,17.4-58,58.3-58,58.3L249,431c0,0,21.2-34.2,29-46.1
				c7.8-11.9,21.4-21.3,21.4-21.3s-11.3-54.1,0-80.1L337.4,287.2z"/>
			<path fill="#2B3743" d="M280.3,281.8c0,0-3.3,14.4,4.1,36.2c7.4,21.8,27.3,43.6,33.2,55c6,11.4-0.5,29.8,36.2,72.4l8.4-4
				c0,0-19.3-60-25.8-82.8s-13.4-72.4-13.4-72.4L280.3,281.8z"/>
			<path fill="#E8E3CD" d="M336.5,185.9c9.7,1.4,11.2,15.9,15.1,30.9c4,14.9,6.9,23.9,6.9,23.9s-3.1,6.1-13.7,6
				c0,0-11.5-16.3-15.5-36.7C325.4,189.5,329.2,184.8,336.5,185.9z"/>
			<path fill="#F9B2A1" d="M304.8,132.4c-15.1,2.6-16.4,17.6-12.9,24.6s12.5,22.7,22.3,18.8S327.4,128.5,304.8,132.4z"/>
			<path fill="#CCB7AB" d="M297.1,180.4c0,0,8.2-2.9,19.7,1.5l-2.4,15.7L297.1,180.4z"/>
			<path fill="#E8E3CD" d="M280.3,281.8c0,0,2.1-17.9-5.8-55c-3.1-14.3-0.5-35.5-0.5-35.5s8.1-1.7,28.8-4.3c19-2.4,33.7-1,33.7-1
				s4.1,18.1,5,28.9c2,24.8-4.1,72.4-4.1,72.4S315.6,300.1,280.3,281.8z"/>
			<path fill="#594A42" d="M283.6,188.7c0,0,7,18.1,7.9,41.3c0.9,23.2-13.4,29.2-13.4,29.2l1.5,6.4c0,0,14.4-7.3,17-27.1
				s-6.4-51.1-6.4-51.1L283.6,188.7z"/>
			<polygon fill="#F9B2A1" points="300,163.2 300,187.2 314.4,197.6 316.1,186.2 309.7,165.6 			"/>
			<path fill="#F9B2A1" d="M289.1,222c0,0-3.6-9.5-1.6-12.4c2-3,9.8-4.3,11.6,3.3c2.4,10.2-6,13.4-6,13.4L289.1,222z"/>
			<path fill="#E8E3CD" d="M274,191.2c-12.6,2.5-16.1,18.4-16.1,33.2c0,14.8-1.5,33.4-1.5,33.4l11.4,3.7c0,0,7.7-24.8,8.4-40.2
				S280.9,189.8,274,191.2z"/>
			<path fill="#D0CABB" d="M274.5,242.1c0,0-8.3-2.2-14.4,2.1c-7.3,5.2-8.1,13.2-5.6,17.4c2.5,4.3,7.2,7.4,14.3,4.3
				C277.8,261.9,277.3,245.6,274.5,242.1z"/>
			<path fill="#D0CABB" d="M342.9,232.2c0,0,7.3-2,12.7,1.8c6.4,4.6,7.1,11.6,5,15.4c-2.2,3.8-6.3,6.6-12.6,3.8
				C340,249.7,340.4,235.3,342.9,232.2z"/>
			<path fill="#F9B2A1" d="M289.1,222c0,0-14.9,19.3-32.1,27.7c0,0-3.8,9.2,1.4,13.1c3.5,2.7,17.4,5.7,34.6-36.7L289.1,222z"/>
			<path fill="#614324" d="M362.3,436.5l-13.4,7.7l10.7,22.3l34.7-15.4c0,0-1-7.2-9.7-8.4s-17.1,4.2-17.1,4.2L362.3,436.5z"/>
			<polygon fill="#E8E3CD" points="394.7,448.6 357.9,466.5 359.6,470 396.8,452.9 			"/>
			<g>
				<path fill="#614324" d="M254.2,420.1l10.1,12.9l-7.6,8.6l2.6,6.3c0,0,11-2,11,8.4h-24.8l-8.3-18.1L254.2,420.1z"/>
				<polygon fill="#E8E3CD" points="246.6,455.1 237.8,436.2 233.9,438.2 243.5,459.3 271.1,459.3 271.1,455.1 				"/>
			</g>
			<path fill="#594A42" d="M324.9,184.5c0,0,6.1,16.7,8.6,39.9c2.5,23.2,7.8,32.6,7.8,32.6l0.6-8.4c0,0-3.1-17.6-5.4-39.2
				c-1.7-16-5.9-24.9-5.9-24.9H324.9z"/>
			<path fill="#F9B2A1" d="M340.8,212.8c0,0,5.5,12.9,17.9,27.8c0,0,3.5,9.2-5.2,9.9c-8.7,0.7-14.4-9.3-16.9-33.8L340.8,212.8z"/>
			<path fill="#F9B2A1" d="M340.8,212.8c0,0-1.4-9.5-3.5-10c-2.2-0.6-8.8,0.4-7.8,7.1c1,6.7,4.8,10,11.9,9.3L340.8,212.8z"/>
			<path fill="#594A42" d="M298.4,154.2c0,0-6-4.6-6.2,0c-0.2,4.6,6.4,6.3,6.4,6.3l1.4,9.2c-4.6,1.2-5.4-7.8-9.7-8.4
				c-4.3-0.7-4.8-6.6-2.7-12.2c2.1-5.6-1.1-7.9,2.7-12.6c3.8-4.6,7.4-4.6,12.1-4.3c4.6,0.3,5.1-4.8,14.5,0c1.7,0.9,8.9,1.2,6.3,6.6
				c-2.8,5.8-6-0.2-9.3,3.1c-3.3,3.3-3.9-2.9-7.9,0.4c-2.7,2.3-6.6,0.9-6.6,0.9S300.8,153.2,298.4,154.2z"/>
			<path fill="#D0CABB" d="M297.1,180.4l16.1,13.3l1.2,4c0,0-5.5-3-6,6.3L296,187.7L297.1,180.4z"/>
			<path fill="#D0CABB" d="M314.4,197.6V193l2.4-11.1l1.4,3.5l1.7,14.5C319.8,199.9,316,190.9,314.4,197.6z"/>
			<path fill="none" stroke="#D0CABB" stroke-width="0.5" stroke-miterlimit="10" d="M314.4,197.6c0,0,9.7,47.1,7.8,94"/>
			<circle fill="#D0CABB" cx="313" cy="208.2" r="1"/>
			<circle fill="#D0CABB" cx="316.8" cy="230.7" r="1"/>
			<circle fill="#D0CABB" cx="318.4" cy="253.2" r="1"/>
			<circle fill="#D0CABB" cx="319.8" cy="275.6" r="1"/>
		</g>
		<path fill="#94C93D" d="M639.2,445.3c-119.8-12.3-156.7,67.3-227.7,34.1c-81.4-38-172.3-8.3-224.6-59.1
			c-30.5-29.7-67.5-41.1-93.1-45.5c-8.8,14.3-13.4,32.1-11.9,55c8.8,131.9,284.3,171.9,491.1,63
			C598.8,479.3,620.7,463.2,639.2,445.3z"/>
		<g>
			<path fill="#55853C" d="M82.1,417.9c0,0,6.4-32.4,3.8-79s31.6-30.3,36.5-11.9c4.9,18.4,5.5-64.2,20-82.8s22.1,24,31.2,22.9
				s-0.3-66.5,25.7-73.2c26-6.7,20.6,90.6,12.4,107.8c-8.2,17.2,18.4-16.8,25,9c6.7,25.8-52.3,51-55,59.2s35-11.1,34.1,13.3
				C214.9,407.6,91,439,91,439L82.1,417.9z"/>
			<path fill="#FFFFFF" d="M127.3,397.9c5.8-5.2,11.7-11,17.6-17.4c11.5-12.7,21.4-26.3,29.5-40.7c28.2-3.4,52.5-24.4,52.8-24.6
				l-0.6-0.7c-0.2,0.2-24,20.7-51.6,24.3c4.9-8.8,9.1-17.9,12.7-27.2c12-31.3,16.5-65.7,13.3-102.2l-0.9,0.1
				c5,57.6-10,102.3-29.5,135c-10.8-35.7-16.5-85.9-16.6-86.4l-0.9,0.1c0.1,0.5,5.9,51.5,16.9,87.4c-8.2,13.5-17.1,24.9-25.6,34.4
				c-12.4,13.7-25.1,24.4-36,32.4c-6.6-37.7-3.9-87.3-3.9-87.8l-0.9-0.1c0,0.5-2.8,50.6,4,88.4c-8.7,6.4-16.3,11-21.5,13.9l0.4,0.8
				c8.7-4.9,23.6-14.3,39.9-28.7c2.8-0.2,5.6-0.5,8.4-0.8c37.3-4.3,66.9-17.8,67.2-17.9l-0.4-0.8C201,379.5,167.6,394.7,127.3,397.9
				z"/>
		</g>
		<path fill="#CADC49" d="M506.1,522.2c-32.1-12.7-74.4-22.3-120.7-14c-100,17.9-98-42.6-183.3-71.6
			c-50.3-17.1-93.5-17.7-120.4-15.4c0,2.8,0.1,5.6,0.3,8.5C89.8,547.9,311.4,592.3,506.1,522.2z"/>
		<path fill="#69A643" d="M343.4,519.7c12.8-20.1,17-40,17-40c-24.2,37.1-84.1,62.4-84.1,62.4l101-90.6
			c-66.2,18.2-112.9,69.8-122,80.4c27.9-33.8,44.2-80.4,44.2-80.4c-27,47.8-86.6,64.9-86.6,64.9c35.9-16.5,61.4-49.9,61.4-49.9
			c-31.2,22.5-84.8,38.9-84.8,38.9l100.7-64.6c-30-3.2-66.8,5.8-94,14.7L312,411.9c-66.9-6.3-181.5,39.6-181.5,39.6l145.9-83.6
			c-27.5,2.1-52.6,8.7-74.7,17.2l26.9-16.3c-51.3,4.6-109.1,27.5-109.1,27.5l114.5-70.5c-37.1,5.7-73.9,21-99,33.3l30.4-65
			c-20.6,12.1-35.7,31.1-46.7,50.8l34.8-98.3c-52.5,36.6-66.4,114.6-70.1,156c-1.5,8.2-2,17.2-1.3,27.1
			c5.8,86.5,126.2,133.5,266.8,124.9c42.1-40.4,60.4-113.8,60.4-113.8C391.7,464.7,363.5,497.2,343.4,519.7z"/>
	</g>
</g>
</svg>
